<mxfile host="app.diagrams.net" modified="2024-05-02T23:31:09.917Z" agent="Mozilla/5.0 (Windows NT 10.0; Win64; x64) AppleWebKit/537.36 (KHTML, like Gecko) Chrome/124.0.0.0 Safari/537.36" etag="GEHJebGsNBwHQbLbPksx" version="24.3.1" type="google" pages="4">
  <diagram name="Página-1" id="k57ZwKoGvx_-znN8F5eQ">
    <mxGraphModel grid="1" page="1" gridSize="10" guides="1" tooltips="1" connect="1" arrows="1" fold="1" pageScale="1" pageWidth="827" pageHeight="1169" math="0" shadow="0">
      <root>
        <mxCell id="0" />
        <mxCell id="1" parent="0" />
        <mxCell id="90qmRt5Bwnn2nf-lHNLU-5" value="&amp;lt;&amp;lt; Serviço Realizar_Pedido &amp;gt;&amp;gt;" style="swimlane;fontStyle=0;childLayout=stackLayout;horizontal=1;startSize=26;fillColor=none;horizontalStack=0;resizeParent=1;resizeParentMax=0;resizeLast=0;collapsible=1;marginBottom=0;whiteSpace=wrap;html=1;" parent="1" vertex="1">
          <mxGeometry x="90" y="460" width="240" height="90" as="geometry" />
        </mxCell>
        <mxCell id="90qmRt5Bwnn2nf-lHNLU-8" value="+ selecionar_itens_cardapio&lt;div&gt;+ inserir_horario_retirada&lt;/div&gt;&lt;div&gt;+ visualizar_pedido&lt;/div&gt;&lt;div&gt;+ cancelar_pedido&lt;/div&gt;" style="text;strokeColor=none;fillColor=none;align=left;verticalAlign=top;spacingLeft=4;spacingRight=4;overflow=hidden;rotatable=0;points=[[0,0.5],[1,0.5]];portConstraint=eastwest;whiteSpace=wrap;html=1;" parent="90qmRt5Bwnn2nf-lHNLU-5" vertex="1">
          <mxGeometry y="26" width="240" height="64" as="geometry" />
        </mxCell>
        <mxCell id="5cvTnXEjX9FL3zhZgh65-2" value="&amp;lt;&amp;lt;Mensagem&amp;gt;&amp;gt;&lt;div&gt;DadosPagamento&lt;/div&gt;" style="swimlane;fontStyle=0;childLayout=stackLayout;horizontal=1;startSize=26;fillColor=none;horizontalStack=0;resizeParent=1;resizeParentMax=0;resizeLast=0;collapsible=1;marginBottom=0;whiteSpace=wrap;html=1;" parent="1" vertex="1">
          <mxGeometry x="440" y="690" width="250" height="102" as="geometry" />
        </mxCell>
        <mxCell id="5cvTnXEjX9FL3zhZgh65-3" value="+ inserir_dados: string" style="text;strokeColor=none;fillColor=none;align=left;verticalAlign=top;spacingLeft=4;spacingRight=4;overflow=hidden;rotatable=0;points=[[0,0.5],[1,0.5]];portConstraint=eastwest;whiteSpace=wrap;html=1;" parent="5cvTnXEjX9FL3zhZgh65-2" vertex="1">
          <mxGeometry y="26" width="250" height="24" as="geometry" />
        </mxCell>
        <mxCell id="5cvTnXEjX9FL3zhZgh65-4" value="+ validar_dados: string" style="text;strokeColor=none;fillColor=none;align=left;verticalAlign=top;spacingLeft=4;spacingRight=4;overflow=hidden;rotatable=0;points=[[0,0.5],[1,0.5]];portConstraint=eastwest;whiteSpace=wrap;html=1;" parent="5cvTnXEjX9FL3zhZgh65-2" vertex="1">
          <mxGeometry y="50" width="250" height="26" as="geometry" />
        </mxCell>
        <mxCell id="5cvTnXEjX9FL3zhZgh65-5" value="+ enviar_API: string" style="text;strokeColor=none;fillColor=none;align=left;verticalAlign=top;spacingLeft=4;spacingRight=4;overflow=hidden;rotatable=0;points=[[0,0.5],[1,0.5]];portConstraint=eastwest;whiteSpace=wrap;html=1;" parent="5cvTnXEjX9FL3zhZgh65-2" vertex="1">
          <mxGeometry y="76" width="250" height="26" as="geometry" />
        </mxCell>
        <mxCell id="WIVvpDXbifilq3aBnlGC-1" value="&lt;div&gt;&amp;lt;&amp;lt;Mensagem&amp;gt;&amp;gt;&lt;/div&gt;&lt;div&gt;Realizar_pedido&lt;/div&gt;" style="swimlane;fontStyle=0;childLayout=stackLayout;horizontal=1;startSize=30;fillColor=none;horizontalStack=0;resizeParent=1;resizeParentMax=0;resizeLast=0;collapsible=1;marginBottom=0;whiteSpace=wrap;html=1;" parent="1" vertex="1">
          <mxGeometry x="90" y="566" width="240" height="124" as="geometry" />
        </mxCell>
        <mxCell id="WIVvpDXbifilq3aBnlGC-2" value="- selecionar_item: string" style="text;strokeColor=none;fillColor=none;align=left;verticalAlign=top;spacingLeft=4;spacingRight=4;overflow=hidden;rotatable=0;points=[[0,0.5],[1,0.5]];portConstraint=eastwest;whiteSpace=wrap;html=1;" parent="WIVvpDXbifilq3aBnlGC-1" vertex="1">
          <mxGeometry y="30" width="240" height="26" as="geometry" />
        </mxCell>
        <mxCell id="WIVvpDXbifilq3aBnlGC-3" value="- horario_retirada: string" style="text;strokeColor=none;fillColor=none;align=left;verticalAlign=top;spacingLeft=4;spacingRight=4;overflow=hidden;rotatable=0;points=[[0,0.5],[1,0.5]];portConstraint=eastwest;whiteSpace=wrap;html=1;" parent="WIVvpDXbifilq3aBnlGC-1" vertex="1">
          <mxGeometry y="56" width="240" height="18" as="geometry" />
        </mxCell>
        <mxCell id="WIVvpDXbifilq3aBnlGC-4" value="- visualizar_pedido: string&lt;div&gt;- cancelar_pedido: string&lt;/div&gt;" style="text;strokeColor=none;fillColor=none;align=left;verticalAlign=top;spacingLeft=4;spacingRight=4;overflow=hidden;rotatable=0;points=[[0,0.5],[1,0.5]];portConstraint=eastwest;whiteSpace=wrap;html=1;" parent="WIVvpDXbifilq3aBnlGC-1" vertex="1">
          <mxGeometry y="74" width="240" height="50" as="geometry" />
        </mxCell>
        <mxCell id="ukQsMCK-S6tSuXP6clpB-3" value="&amp;lt;&amp;lt;Gerenciar Pagamento&amp;gt;&amp;gt;" style="swimlane;fontStyle=0;childLayout=stackLayout;horizontal=1;startSize=26;fillColor=none;horizontalStack=0;resizeParent=1;resizeParentMax=0;resizeLast=0;collapsible=1;marginBottom=0;whiteSpace=wrap;html=1;" parent="1" vertex="1">
          <mxGeometry x="440" y="560" width="250" height="102" as="geometry" />
        </mxCell>
        <mxCell id="ukQsMCK-S6tSuXP6clpB-4" value="+ inserir_dados_pagamento" style="text;strokeColor=none;fillColor=none;align=left;verticalAlign=top;spacingLeft=4;spacingRight=4;overflow=hidden;rotatable=0;points=[[0,0.5],[1,0.5]];portConstraint=eastwest;whiteSpace=wrap;html=1;" parent="ukQsMCK-S6tSuXP6clpB-3" vertex="1">
          <mxGeometry y="26" width="250" height="24" as="geometry" />
        </mxCell>
        <mxCell id="ukQsMCK-S6tSuXP6clpB-5" value="+ validar_dados_pagamento" style="text;strokeColor=none;fillColor=none;align=left;verticalAlign=top;spacingLeft=4;spacingRight=4;overflow=hidden;rotatable=0;points=[[0,0.5],[1,0.5]];portConstraint=eastwest;whiteSpace=wrap;html=1;" parent="ukQsMCK-S6tSuXP6clpB-3" vertex="1">
          <mxGeometry y="50" width="250" height="26" as="geometry" />
        </mxCell>
        <mxCell id="ukQsMCK-S6tSuXP6clpB-6" value="+ enviar_dados_API" style="text;strokeColor=none;fillColor=none;align=left;verticalAlign=top;spacingLeft=4;spacingRight=4;overflow=hidden;rotatable=0;points=[[0,0.5],[1,0.5]];portConstraint=eastwest;whiteSpace=wrap;html=1;" parent="ukQsMCK-S6tSuXP6clpB-3" vertex="1">
          <mxGeometry y="76" width="250" height="26" as="geometry" />
        </mxCell>
        <mxCell id="ukQsMCK-S6tSuXP6clpB-17" value="&amp;lt;&amp;lt;Pedido&amp;gt;&amp;gt;" style="swimlane;fontStyle=0;childLayout=stackLayout;horizontal=1;startSize=26;fillColor=none;horizontalStack=0;resizeParent=1;resizeParentMax=0;resizeLast=0;collapsible=1;marginBottom=0;whiteSpace=wrap;html=1;" parent="1" vertex="1">
          <mxGeometry x="70" y="890" width="150" height="102" as="geometry" />
        </mxCell>
        <mxCell id="ukQsMCK-S6tSuXP6clpB-18" value="+ Deletar_Pedido" style="text;strokeColor=none;fillColor=none;align=left;verticalAlign=top;spacingLeft=4;spacingRight=4;overflow=hidden;rotatable=0;points=[[0,0.5],[1,0.5]];portConstraint=eastwest;whiteSpace=wrap;html=1;" parent="ukQsMCK-S6tSuXP6clpB-17" vertex="1">
          <mxGeometry y="26" width="150" height="24" as="geometry" />
        </mxCell>
        <mxCell id="ukQsMCK-S6tSuXP6clpB-19" value="+ Visualizar_Pedido" style="text;strokeColor=none;fillColor=none;align=left;verticalAlign=top;spacingLeft=4;spacingRight=4;overflow=hidden;rotatable=0;points=[[0,0.5],[1,0.5]];portConstraint=eastwest;whiteSpace=wrap;html=1;" parent="ukQsMCK-S6tSuXP6clpB-17" vertex="1">
          <mxGeometry y="50" width="150" height="26" as="geometry" />
        </mxCell>
        <mxCell id="ukQsMCK-S6tSuXP6clpB-20" value="+ Adicionar_Pedido" style="text;strokeColor=none;fillColor=none;align=left;verticalAlign=top;spacingLeft=4;spacingRight=4;overflow=hidden;rotatable=0;points=[[0,0.5],[1,0.5]];portConstraint=eastwest;whiteSpace=wrap;html=1;" parent="ukQsMCK-S6tSuXP6clpB-17" vertex="1">
          <mxGeometry y="76" width="150" height="26" as="geometry" />
        </mxCell>
      </root>
    </mxGraphModel>
  </diagram>
  <diagram id="Ucr76129Twfs1bk7O_q3" name="Mensageria">
    <mxGraphModel grid="1" page="1" gridSize="10" guides="1" tooltips="1" connect="1" arrows="1" fold="1" pageScale="1" pageWidth="827" pageHeight="1169" math="0" shadow="0">
      <root>
        <mxCell id="0" />
        <mxCell id="1" parent="0" />
        <mxCell id="i6mNIM-J1PrICSiFTmuQ-1" value="&amp;lt;&amp;lt;Serviço Mensageria&amp;gt;&amp;gt;" style="swimlane;whiteSpace=wrap;html=1;" vertex="1" parent="1">
          <mxGeometry x="10" y="10" width="160" height="80" as="geometry" />
        </mxCell>
        <mxCell id="i6mNIM-J1PrICSiFTmuQ-6" value="+notificar_cliente" style="text;html=1;align=center;verticalAlign=middle;whiteSpace=wrap;rounded=0;" vertex="1" parent="i6mNIM-J1PrICSiFTmuQ-1">
          <mxGeometry y="25" width="140" height="30" as="geometry" />
        </mxCell>
        <mxCell id="i6mNIM-J1PrICSiFTmuQ-7" value="+notificar_lanchonete" style="text;html=1;align=center;verticalAlign=middle;whiteSpace=wrap;rounded=0;" vertex="1" parent="i6mNIM-J1PrICSiFTmuQ-1">
          <mxGeometry y="50" width="140" height="30" as="geometry" />
        </mxCell>
        <mxCell id="i6mNIM-J1PrICSiFTmuQ-4" value="&amp;lt;&amp;lt;Mensagem&amp;gt;&amp;gt;&lt;div&gt;DadosMensagemCliente&lt;/div&gt;" style="swimlane;whiteSpace=wrap;html=1;" vertex="1" parent="1">
          <mxGeometry x="190" y="10" width="180" height="150" as="geometry" />
        </mxCell>
        <mxCell id="i6mNIM-J1PrICSiFTmuQ-8" value="- em_preparacao: boolean" style="text;html=1;align=center;verticalAlign=middle;whiteSpace=wrap;rounded=0;" vertex="1" parent="i6mNIM-J1PrICSiFTmuQ-4">
          <mxGeometry y="90" width="150" height="30" as="geometry" />
        </mxCell>
        <mxCell id="i6mNIM-J1PrICSiFTmuQ-11" value="- nome_cliente: string" style="text;html=1;align=center;verticalAlign=middle;whiteSpace=wrap;rounded=0;" vertex="1" parent="i6mNIM-J1PrICSiFTmuQ-4">
          <mxGeometry y="30" width="120" height="30" as="geometry" />
        </mxCell>
        <mxCell id="i6mNIM-J1PrICSiFTmuQ-12" value="- numero_pedido: int" style="text;html=1;align=center;verticalAlign=middle;whiteSpace=wrap;rounded=0;" vertex="1" parent="i6mNIM-J1PrICSiFTmuQ-4">
          <mxGeometry y="50" width="120" height="30" as="geometry" />
        </mxCell>
        <mxCell id="i6mNIM-J1PrICSiFTmuQ-13" value="- itens_pedido: array" style="text;html=1;align=center;verticalAlign=middle;whiteSpace=wrap;rounded=0;" vertex="1" parent="i6mNIM-J1PrICSiFTmuQ-4">
          <mxGeometry y="70" width="140" height="30" as="geometry" />
        </mxCell>
        <mxCell id="i6mNIM-J1PrICSiFTmuQ-14" value="-pedido_pronto: boolean" style="text;html=1;align=center;verticalAlign=middle;whiteSpace=wrap;rounded=0;" vertex="1" parent="i6mNIM-J1PrICSiFTmuQ-4">
          <mxGeometry y="120" width="150" height="30" as="geometry" />
        </mxCell>
        <mxCell id="i6mNIM-J1PrICSiFTmuQ-16" value="&amp;lt;&amp;lt;Mensagem&amp;gt;&amp;gt;&lt;div&gt;DadosMensagemLanchonete&lt;/div&gt;" style="swimlane;whiteSpace=wrap;html=1;" vertex="1" parent="1">
          <mxGeometry x="390" y="10" width="230" height="150" as="geometry" />
        </mxCell>
        <mxCell id="i6mNIM-J1PrICSiFTmuQ-18" value="- nome_cliente: string" style="text;html=1;align=center;verticalAlign=middle;whiteSpace=wrap;rounded=0;" vertex="1" parent="i6mNIM-J1PrICSiFTmuQ-16">
          <mxGeometry y="30" width="120" height="30" as="geometry" />
        </mxCell>
        <mxCell id="i6mNIM-J1PrICSiFTmuQ-19" value="- numero_pedido: int" style="text;html=1;align=center;verticalAlign=middle;whiteSpace=wrap;rounded=0;" vertex="1" parent="i6mNIM-J1PrICSiFTmuQ-16">
          <mxGeometry y="50" width="120" height="30" as="geometry" />
        </mxCell>
        <mxCell id="i6mNIM-J1PrICSiFTmuQ-20" value="- itens_pedido: array" style="text;html=1;align=center;verticalAlign=middle;whiteSpace=wrap;rounded=0;" vertex="1" parent="i6mNIM-J1PrICSiFTmuQ-16">
          <mxGeometry x="-10" y="70" width="140" height="30" as="geometry" />
        </mxCell>
        <mxCell id="i6mNIM-J1PrICSiFTmuQ-22" value="- atualizar_status_do_pedido: boolean&amp;nbsp;" style="text;html=1;align=center;verticalAlign=middle;whiteSpace=wrap;rounded=0;" vertex="1" parent="i6mNIM-J1PrICSiFTmuQ-16">
          <mxGeometry x="-10" y="90" width="250" height="30" as="geometry" />
        </mxCell>
        <mxCell id="i6mNIM-J1PrICSiFTmuQ-23" value="&amp;lt;&amp;lt;Serviço Item&amp;gt;&amp;gt;" style="swimlane;whiteSpace=wrap;html=1;" vertex="1" parent="1">
          <mxGeometry x="10" y="230" width="170" height="130" as="geometry" />
        </mxCell>
        <mxCell id="i6mNIM-J1PrICSiFTmuQ-24" value="-criar_item" style="text;html=1;align=center;verticalAlign=middle;whiteSpace=wrap;rounded=0;" vertex="1" parent="i6mNIM-J1PrICSiFTmuQ-23">
          <mxGeometry y="25" width="140" height="30" as="geometry" />
        </mxCell>
        <mxCell id="i6mNIM-J1PrICSiFTmuQ-25" value="-atualizar_item" style="text;html=1;align=center;verticalAlign=middle;whiteSpace=wrap;rounded=0;" vertex="1" parent="i6mNIM-J1PrICSiFTmuQ-23">
          <mxGeometry y="50" width="140" height="30" as="geometry" />
        </mxCell>
        <mxCell id="i6mNIM-J1PrICSiFTmuQ-26" value="-obter_item" style="text;html=1;align=center;verticalAlign=middle;whiteSpace=wrap;rounded=0;" vertex="1" parent="i6mNIM-J1PrICSiFTmuQ-23">
          <mxGeometry y="80" width="140" height="30" as="geometry" />
        </mxCell>
        <mxCell id="i6mNIM-J1PrICSiFTmuQ-27" value="-deletar_item" style="text;html=1;align=center;verticalAlign=middle;whiteSpace=wrap;rounded=0;" vertex="1" parent="i6mNIM-J1PrICSiFTmuQ-23">
          <mxGeometry y="110" width="140" height="30" as="geometry" />
        </mxCell>
        <mxCell id="i6mNIM-J1PrICSiFTmuQ-28" value="&amp;lt;&amp;lt;Mensagem&amp;gt;&amp;gt;&lt;div&gt;DadosItem&lt;/div&gt;" style="swimlane;whiteSpace=wrap;html=1;" vertex="1" parent="1">
          <mxGeometry x="244" y="230" width="170" height="100" as="geometry" />
        </mxCell>
        <mxCell id="i6mNIM-J1PrICSiFTmuQ-29" value="+nome_item" style="text;html=1;align=center;verticalAlign=middle;whiteSpace=wrap;rounded=0;" vertex="1" parent="i6mNIM-J1PrICSiFTmuQ-28">
          <mxGeometry y="25" width="140" height="30" as="geometry" />
        </mxCell>
        <mxCell id="i6mNIM-J1PrICSiFTmuQ-30" value="+preco_item: float" style="text;html=1;align=center;verticalAlign=middle;whiteSpace=wrap;rounded=0;" vertex="1" parent="i6mNIM-J1PrICSiFTmuQ-28">
          <mxGeometry y="50" width="140" height="30" as="geometry" />
        </mxCell>
        <mxCell id="i6mNIM-J1PrICSiFTmuQ-31" value="-+descricao_item:string" style="text;html=1;align=center;verticalAlign=middle;whiteSpace=wrap;rounded=0;" vertex="1" parent="i6mNIM-J1PrICSiFTmuQ-28">
          <mxGeometry y="80" width="140" height="30" as="geometry" />
        </mxCell>
      </root>
    </mxGraphModel>
  </diagram>
  <diagram id="VQ1msYL5Usex4glKginH" name="Página-3">
    <mxGraphModel grid="1" page="1" gridSize="10" guides="1" tooltips="1" connect="1" arrows="1" fold="1" pageScale="1" pageWidth="827" pageHeight="1169" math="0" shadow="0">
      <root>
        <mxCell id="0" />
        <mxCell id="1" parent="0" />
        <mxCell id="5B8Q2q13RFudGQr7G-9x-1" value="&amp;lt;&amp;lt; Serviço Cardapio &amp;gt;&amp;gt;" style="swimlane;fontStyle=0;childLayout=stackLayout;horizontal=1;startSize=26;fillColor=none;horizontalStack=0;resizeParent=1;resizeParentMax=0;resizeLast=0;collapsible=1;marginBottom=0;whiteSpace=wrap;html=1;" vertex="1" parent="1">
          <mxGeometry x="40" y="40" width="140" height="78" as="geometry" />
        </mxCell>
        <mxCell id="5B8Q2q13RFudGQr7G-9x-2" value="+ visualizar_cardapio" style="text;strokeColor=none;fillColor=none;align=left;verticalAlign=top;spacingLeft=4;spacingRight=4;overflow=hidden;rotatable=0;points=[[0,0.5],[1,0.5]];portConstraint=eastwest;whiteSpace=wrap;html=1;" vertex="1" parent="5B8Q2q13RFudGQr7G-9x-1">
          <mxGeometry y="26" width="140" height="26" as="geometry" />
        </mxCell>
        <mxCell id="5B8Q2q13RFudGQr7G-9x-3" value="- atualizar_cardapio" style="text;strokeColor=none;fillColor=none;align=left;verticalAlign=top;spacingLeft=4;spacingRight=4;overflow=hidden;rotatable=0;points=[[0,0.5],[1,0.5]];portConstraint=eastwest;whiteSpace=wrap;html=1;" vertex="1" parent="5B8Q2q13RFudGQr7G-9x-1">
          <mxGeometry y="52" width="140" height="26" as="geometry" />
        </mxCell>
        <mxCell id="5B8Q2q13RFudGQr7G-9x-5" value="&amp;lt;&amp;lt; Serviço Item &amp;gt;&amp;gt;" style="swimlane;fontStyle=0;childLayout=stackLayout;horizontal=1;startSize=26;fillColor=none;horizontalStack=0;resizeParent=1;resizeParentMax=0;resizeLast=0;collapsible=1;marginBottom=0;whiteSpace=wrap;html=1;" vertex="1" parent="1">
          <mxGeometry x="40" y="160" width="140" height="130" as="geometry" />
        </mxCell>
        <mxCell id="5B8Q2q13RFudGQr7G-9x-6" value="- criar_item" style="text;strokeColor=none;fillColor=none;align=left;verticalAlign=top;spacingLeft=4;spacingRight=4;overflow=hidden;rotatable=0;points=[[0,0.5],[1,0.5]];portConstraint=eastwest;whiteSpace=wrap;html=1;" vertex="1" parent="5B8Q2q13RFudGQr7G-9x-5">
          <mxGeometry y="26" width="140" height="26" as="geometry" />
        </mxCell>
        <mxCell id="5B8Q2q13RFudGQr7G-9x-7" value="- atualizar_item" style="text;strokeColor=none;fillColor=none;align=left;verticalAlign=top;spacingLeft=4;spacingRight=4;overflow=hidden;rotatable=0;points=[[0,0.5],[1,0.5]];portConstraint=eastwest;whiteSpace=wrap;html=1;" vertex="1" parent="5B8Q2q13RFudGQr7G-9x-5">
          <mxGeometry y="52" width="140" height="26" as="geometry" />
        </mxCell>
        <mxCell id="5B8Q2q13RFudGQr7G-9x-8" value="- obter_item&lt;span style=&quot;white-space: pre;&quot;&gt;&#x9;&lt;/span&gt;" style="text;strokeColor=none;fillColor=none;align=left;verticalAlign=top;spacingLeft=4;spacingRight=4;overflow=hidden;rotatable=0;points=[[0,0.5],[1,0.5]];portConstraint=eastwest;whiteSpace=wrap;html=1;" vertex="1" parent="5B8Q2q13RFudGQr7G-9x-5">
          <mxGeometry y="78" width="140" height="26" as="geometry" />
        </mxCell>
        <mxCell id="5B8Q2q13RFudGQr7G-9x-9" value="- deletar_item" style="text;strokeColor=none;fillColor=none;align=left;verticalAlign=top;spacingLeft=4;spacingRight=4;overflow=hidden;rotatable=0;points=[[0,0.5],[1,0.5]];portConstraint=eastwest;whiteSpace=wrap;html=1;" vertex="1" parent="5B8Q2q13RFudGQr7G-9x-5">
          <mxGeometry y="104" width="140" height="26" as="geometry" />
        </mxCell>
        <mxCell id="5B8Q2q13RFudGQr7G-9x-10" value="&amp;lt;&amp;lt; Mensagem &amp;gt;&amp;gt;&lt;div&gt;DadosCardapio&lt;/div&gt;" style="swimlane;fontStyle=0;childLayout=stackLayout;horizontal=1;startSize=26;fillColor=none;horizontalStack=0;resizeParent=1;resizeParentMax=0;resizeLast=0;collapsible=1;marginBottom=0;whiteSpace=wrap;html=1;" vertex="1" parent="1">
          <mxGeometry x="220" y="40" width="140" height="52" as="geometry" />
        </mxCell>
        <mxCell id="5B8Q2q13RFudGQr7G-9x-12" value="+ lista_itens: array" style="text;strokeColor=none;fillColor=none;align=left;verticalAlign=top;spacingLeft=4;spacingRight=4;overflow=hidden;rotatable=0;points=[[0,0.5],[1,0.5]];portConstraint=eastwest;whiteSpace=wrap;html=1;" vertex="1" parent="5B8Q2q13RFudGQr7G-9x-10">
          <mxGeometry y="26" width="140" height="26" as="geometry" />
        </mxCell>
        <mxCell id="5B8Q2q13RFudGQr7G-9x-13" value="&amp;lt;&amp;lt; Mensagem &amp;gt;&amp;gt;&lt;div&gt;DadosItem&lt;/div&gt;" style="swimlane;fontStyle=0;childLayout=stackLayout;horizontal=1;startSize=26;fillColor=none;horizontalStack=0;resizeParent=1;resizeParentMax=0;resizeLast=0;collapsible=1;marginBottom=0;whiteSpace=wrap;html=1;" vertex="1" parent="1">
          <mxGeometry x="220" y="160" width="140" height="104" as="geometry" />
        </mxCell>
        <mxCell id="5B8Q2q13RFudGQr7G-9x-14" value="+ nome_item: string" style="text;strokeColor=none;fillColor=none;align=left;verticalAlign=top;spacingLeft=4;spacingRight=4;overflow=hidden;rotatable=0;points=[[0,0.5],[1,0.5]];portConstraint=eastwest;whiteSpace=wrap;html=1;" vertex="1" parent="5B8Q2q13RFudGQr7G-9x-13">
          <mxGeometry y="26" width="140" height="26" as="geometry" />
        </mxCell>
        <mxCell id="5B8Q2q13RFudGQr7G-9x-15" value="+ preco_item: float" style="text;strokeColor=none;fillColor=none;align=left;verticalAlign=top;spacingLeft=4;spacingRight=4;overflow=hidden;rotatable=0;points=[[0,0.5],[1,0.5]];portConstraint=eastwest;whiteSpace=wrap;html=1;" vertex="1" parent="5B8Q2q13RFudGQr7G-9x-13">
          <mxGeometry y="52" width="140" height="26" as="geometry" />
        </mxCell>
        <mxCell id="5B8Q2q13RFudGQr7G-9x-16" value="+ descricao_item: string" style="text;strokeColor=none;fillColor=none;align=left;verticalAlign=top;spacingLeft=4;spacingRight=4;overflow=hidden;rotatable=0;points=[[0,0.5],[1,0.5]];portConstraint=eastwest;whiteSpace=wrap;html=1;" vertex="1" parent="5B8Q2q13RFudGQr7G-9x-13">
          <mxGeometry y="78" width="140" height="26" as="geometry" />
        </mxCell>
      </root>
    </mxGraphModel>
  </diagram>
  <diagram id="1FrZhbhmIwiUPqmmMVsp" name="Entidade_pedido">
    <mxGraphModel dx="1674" dy="772" grid="1" gridSize="10" guides="1" tooltips="1" connect="1" arrows="1" fold="1" page="1" pageScale="1" pageWidth="827" pageHeight="1169" math="0" shadow="0">
      <root>
        <mxCell id="0" />
        <mxCell id="1" parent="0" />
        <mxCell id="_V4y8RsyoHdx3t-1StaX-1" value="&amp;lt;&amp;lt;Servico Pedido&amp;gt;&amp;gt;" style="swimlane;fontStyle=0;childLayout=stackLayout;horizontal=1;startSize=26;fillColor=none;horizontalStack=0;resizeParent=1;resizeParentMax=0;resizeLast=0;collapsible=1;marginBottom=0;whiteSpace=wrap;html=1;" vertex="1" parent="1">
          <mxGeometry y="20" width="150" height="102" as="geometry" />
        </mxCell>
        <mxCell id="_V4y8RsyoHdx3t-1StaX-2" value="- Deletar_Pedido" style="text;strokeColor=none;fillColor=none;align=left;verticalAlign=top;spacingLeft=4;spacingRight=4;overflow=hidden;rotatable=0;points=[[0,0.5],[1,0.5]];portConstraint=eastwest;whiteSpace=wrap;html=1;" vertex="1" parent="_V4y8RsyoHdx3t-1StaX-1">
          <mxGeometry y="26" width="150" height="24" as="geometry" />
        </mxCell>
        <mxCell id="_V4y8RsyoHdx3t-1StaX-3" value="+ Visualizar_Pedido" style="text;strokeColor=none;fillColor=none;align=left;verticalAlign=top;spacingLeft=4;spacingRight=4;overflow=hidden;rotatable=0;points=[[0,0.5],[1,0.5]];portConstraint=eastwest;whiteSpace=wrap;html=1;" vertex="1" parent="_V4y8RsyoHdx3t-1StaX-1">
          <mxGeometry y="50" width="150" height="26" as="geometry" />
        </mxCell>
        <mxCell id="_V4y8RsyoHdx3t-1StaX-4" value="- Adicionar_Pedido" style="text;strokeColor=none;fillColor=none;align=left;verticalAlign=top;spacingLeft=4;spacingRight=4;overflow=hidden;rotatable=0;points=[[0,0.5],[1,0.5]];portConstraint=eastwest;whiteSpace=wrap;html=1;" vertex="1" parent="_V4y8RsyoHdx3t-1StaX-1">
          <mxGeometry y="76" width="150" height="26" as="geometry" />
        </mxCell>
        <mxCell id="_V4y8RsyoHdx3t-1StaX-5" value="&amp;lt;&amp;lt;Mensagem&amp;gt;&amp;gt;&lt;div&gt;DadosPedido&lt;/div&gt;" style="swimlane;fontStyle=0;childLayout=stackLayout;horizontal=1;startSize=26;fillColor=none;horizontalStack=0;resizeParent=1;resizeParentMax=0;resizeLast=0;collapsible=1;marginBottom=0;whiteSpace=wrap;html=1;" vertex="1" parent="1">
          <mxGeometry x="170" y="20" width="220" height="128" as="geometry">
            <mxRectangle x="170" y="20" width="130" height="40" as="alternateBounds" />
          </mxGeometry>
        </mxCell>
        <mxCell id="_V4y8RsyoHdx3t-1StaX-6" value="- numero_pedido: int" style="text;strokeColor=none;fillColor=none;align=left;verticalAlign=top;spacingLeft=4;spacingRight=4;overflow=hidden;rotatable=0;points=[[0,0.5],[1,0.5]];portConstraint=eastwest;whiteSpace=wrap;html=1;" vertex="1" parent="_V4y8RsyoHdx3t-1StaX-5">
          <mxGeometry y="26" width="220" height="24" as="geometry" />
        </mxCell>
        <mxCell id="_V4y8RsyoHdx3t-1StaX-7" value="- preco: float" style="text;strokeColor=none;fillColor=none;align=left;verticalAlign=top;spacingLeft=4;spacingRight=4;overflow=hidden;rotatable=0;points=[[0,0.5],[1,0.5]];portConstraint=eastwest;whiteSpace=wrap;html=1;" vertex="1" parent="_V4y8RsyoHdx3t-1StaX-5">
          <mxGeometry y="50" width="220" height="26" as="geometry" />
        </mxCell>
        <mxCell id="_V4y8RsyoHdx3t-1StaX-9" value="- descricao_itens: string" style="text;strokeColor=none;fillColor=none;align=left;verticalAlign=top;spacingLeft=4;spacingRight=4;overflow=hidden;rotatable=0;points=[[0,0.5],[1,0.5]];portConstraint=eastwest;whiteSpace=wrap;html=1;" vertex="1" parent="_V4y8RsyoHdx3t-1StaX-5">
          <mxGeometry y="76" width="220" height="26" as="geometry" />
        </mxCell>
        <mxCell id="_V4y8RsyoHdx3t-1StaX-8" value="- itens_do_pedido: array" style="text;strokeColor=none;fillColor=none;align=left;verticalAlign=top;spacingLeft=4;spacingRight=4;overflow=hidden;rotatable=0;points=[[0,0.5],[1,0.5]];portConstraint=eastwest;whiteSpace=wrap;html=1;" vertex="1" parent="_V4y8RsyoHdx3t-1StaX-5">
          <mxGeometry y="102" width="220" height="26" as="geometry" />
        </mxCell>
      </root>
    </mxGraphModel>
  </diagram>
</mxfile>
